<?xml version="1.0" encoding="utf-8"?>
<!-- Generated by IcoMoon.io -->
<!DOCTYPE svg PUBLIC "-//W3C//DTD SVG 1.1//EN" "http://www.w3.org/Graphics/SVG/1.1/DTD/svg11.dtd">
<svg version="1.1" xmlns="http://www.w3.org/2000/svg" xmlns:xlink="http://www.w3.org/1999/xlink" width="512" height="512" viewBox="0 0 512 512">
<g>
</g>
	<path d="M316.058 145.685l-0.42-2.509c-3.635-30.259-29.337-53.064-59.658-53.064-29.901 0-55.286 22.231-59.474 51.886-0.051 0.379-0.123 3.298-0.164 3.707l18.78-0.256c2.54-20.746 20.101-36.413 40.857-36.413 20.777 0 38.359 15.657 40.899 36.413l19.18 0.236z" fill="#000000" />
	<path d="M395.079 163.246h-278.159c-22.129 0-40.53 15.248-45.721 35.748h369.592c-5.171-20.49-23.593-35.748-45.712-35.748z" fill="#000000" />
	<path d="M69.602 220.037v154.553c0 26.142 21.177 47.298 47.319 47.298h278.159c26.142 0 47.319-21.156 47.319-47.298v-154.553c0-0.748-0.205-1.454-0.215-2.222h-372.357c-0.041 0.778-0.225 1.475-0.225 2.222z" fill="#000000" />
</svg>
