<?xml version="1.0" encoding="utf-8"?>
<!-- Generated by IcoMoon.io -->
<!DOCTYPE svg PUBLIC "-//W3C//DTD SVG 1.1//EN" "http://www.w3.org/Graphics/SVG/1.1/DTD/svg11.dtd">
<svg version="1.1" xmlns="http://www.w3.org/2000/svg" xmlns:xlink="http://www.w3.org/1999/xlink" width="512" height="512" viewBox="0 0 512 512">
<g>
</g>
	<path d="M105.564 234.998c42.005 0 89.999 0 132.045 0 0 9.001 0 14.992 2.98 21.022h-93.020c-3 51.026-6.011 102.031 20.992 126.014-35.983 0-75.008-47.985-62.996-147.036z" fill="#000000" />
	<path d="M162.56 388.055h18.012v75.038h-18.012v-75.038z" fill="#000000" />
	<path d="M114.544 493.066c36.045 0 75.028 0 114.064 0-9.011-12.002-21.023-20.982-42.025-24.002-39.014 0.010-63.007 3.031-72.038 24.002z" fill="#000000" />
	<path d="M312.606 105.963c0 6.031 0 15.022 0 21.013-27.013 15.022-42.005 33.014-50.985 60.027 0 102.011 0 201.052 0 303.094 47.985 0 96 0 147.026 0 0-99.041 0-198.062 0-300.114-2.99-24.013-18.012-47.995-51.016-65.987 0-6.031 0-12.001 0-18.032-15.012 0-30.014 0-45.026 0v0zM270.613 234.998h96.031v-36.035c0-2.97 0-2.97 0-2.97 3.010-6.021 3.010-12.012 0-18.012 0-3-3-6.021-9.011-9.001-2.99 0-6-6.021-2.99-9.011 0-6 5.97-6 9.001-6 12.002 6 14.981 11.991 18.002 21.012 2.99 5.99 2.99 14.992 2.99 23.982v36.035h18.033v105.031h-18.033v138.035c0 3-2.99 9.022-8.99 9.022-3.010 0-9.001-6.021-9.001-9.022v-138.035h-96.031v-105.031z" fill="#000000" />
	<path d="M312.606 18.934h45.015v78.029h-45.015v-78.029zM336.64 21.924v66.048h14.991v-66.048h-14.991z" fill="#000000" />
</svg>
